<svg xmlns="http://www.w3.org/2000/svg" xmlns:xlink="http://www.w3.org/1999/xlink" xml:space="preserve" width="240.158" height="51"><defs><linearGradient id="a"><stop offset=".045" stop-color="#7f24ce"/><stop offset="1" stop-color="#f87cfe"/></linearGradient><linearGradient xlink:href="#a" id="e" x1="269.585" x2="488.27" y1="847.204" y2="393.079" gradientTransform="translate(-22.242 207.055)scale(.04416)" gradientUnits="userSpaceOnUse"/><linearGradient xlink:href="#a" id="d" x1="496.519" x2="635.831" y1="813.477" y2="589.778" gradientTransform="translate(-22.242 207.055)scale(.04416)" gradientUnits="userSpaceOnUse"/><linearGradient xlink:href="#a" id="b" x1="635.831" x2="721.822" y1="589.778" y2="368.408" gradientTransform="translate(-22.242 207.055)scale(.04416)" gradientUnits="userSpaceOnUse"/></defs><g transform="translate(39.508 -202.738)"><ellipse cx=".233" cy="229.002" fill="#293252" rx="24.748" ry="24.736"/><path fill="#293252" d="m 176.37136,202.73827 c -3.74647,0 -4.12033,4.24977 -8.90455,4.24977 -1.16134,-0.006 -122.501906,0.002 -122.501906,0.002 l 0.07617,0.002 c -2.589638,-0.0625 -5.227607,0.0743 -7.798829,0.92773 -2.02404,0.67183 -3.885155,2.01591 -5.498046,3.75195 l -68.09375,-0.0527 c -2.444709,-0.002 -3.959469,2.66103 -2.708985,4.76172 l 7.304688,12.27539 -7.333985,12.82617 c -1.20168,2.10019 0.314696,4.71486 2.734375,4.71485 h 69.408203 c 0.764871,-0.0379 1.489744,-0.35313 2.58917,-1.44664 1.099427,-1.09351 3.5841,-3.18621 9.320987,-3.18621 1.739929,4e-5 3.15041,-0.002 3.15041,-0.002 l 122.019048,-0.0205 c 1.86832,-0.0185 4.80158,-1.38781 6.53257,-4.22564 h 20.82722 c 2.41968,2e-5 3.93606,-2.61466 2.73438,-4.71485 l -7.334,-12.82595 7.30469,-12.27539 c 1.25004,-2.09994 -0.26319,-4.76174 -2.70703,-4.76172 z"/><g paint-order="stroke fill markers"><path fill="url(#b)" d="m 2.7607476,211.44723 c -1.4810401,1.02862 -2.83594481,2.60469 -3.31326072,4.28554 -0.47731708,1.68086 -0.58065528,3.38494 0.0658376,5.69141 0.64653564,2.30647 3.75192792,4.14133 6.31778582,5.0069 3.1285316,1.07928 5.8416197,3.3693 7.1725757,6.43208 0.310484,0.6052 1.378085,3.24623 1.260855,1.07152 0.106534,-3.75142 -1.489138,-7.52286 -4.4259912,-9.90147 -2.1684004,-1.94702 -5.2316044,-2.99984 -6.5715087,-5.77383 -1.1602444,-2.03523 -1.091508,-4.52962 -0.4021459,-6.70813 l -0.051946,-0.052 z" style="mix-blend-mode:normal" transform="translate(-.422 -.93)"/><path fill="url(#d)" d="m 0.68558612,232.51062 c 3.03448208,-0.16697 5.74612298,2.67703 5.43529788,5.70069 -0.1044031,2.79951 -2.7059727,5.26076 -5.54102261,4.98479 -3.29293429,0.12081 -5.84157749,-3.41234 -5.04994219,-6.51373 0.4704556,-2.38646 2.7406612,-4.17103 5.15553856,-4.17175 z" style="mix-blend-mode:normal" transform="translate(-.422 -.93)"/><path fill="url(#e)" d="m -9.2220088,210.32539 c 0.6765209,0.91465 1.3399812,1.75737 1.6928579,2.87647 1.2089525,3.16927 0.331748,6.66364 -1.2415515,9.53712 -2.4098076,4.73192 -4.7485346,9.94963 -4.0743856,15.38459 0.680968,4.90974 4.1707779,9.41504 8.9740288,10.87277 4.82166078,1.60952 10.5020305,0.006 13.7348368,-3.92839 2.2180874,-2.5858 3.5099234,-6.16834 2.9021234,-9.57292 -0.924804,-3.78568 -3.8747394,-6.93607 -7.6058292,-8.07625 -2.2606593,-0.75537 -4.81629105,-2.14253 -6.4304135,-3.88599 -0.2038642,1.23584 -0.4806414,2.76504 -0.9106133,4.18029 -0.4299731,1.41524 -1.1645493,3.50284 -1.4654869,4.99709 1.3091366,-1.37242 2.93544747,-1.82889 4.44128983,-1.81747 3.78009497,0.0288 7.10337027,3.37918 6.95413687,7.14658 -0.030553,3.67901 -3.3839142,6.94617 -7.08006071,6.79873 -3.68199819,0.0166 -6.83771649,-3.24244 -6.94795769,-6.87841 -0.050413,-2.75933 1.0710534,-5.37241 1.8272775,-7.98625 1.4641226,-4.33936 2.0921219,-7.89382 2.0677034,-10.36021 -0.024374,-2.4664 -0.6428773,-4.92775 -2.3245798,-6.75206 -1.6195386,-1.75688 -3.9178066,-2.54724 -4.5133763,-2.53569" style="mix-blend-mode:normal" transform="translate(-.422 -.93)"/></g><g fill="#797ff2"><path d="m 32.762869,229.14538 v -14.68281 l 0.675921,-0.82917 c 0.819814,-1.00568 2.580435,-2.51279 3.515733,-3.00951 1.076497,-0.57169 2.430636,-0.97268 3.846921,-1.13915 0.857084,-0.1007 23.205311,-0.15454 65.250056,-0.1571 71.56659,-0.004 65.20225,0.10307 66.91571,-1.1293 l 0.94144,-0.67712 0.0378,14.14797 c 0.0274,10.23615 -0.007,14.26293 -0.12556,14.56376 -0.36837,0.93766 -1.93075,2.01266 -3.63908,2.50387 -0.85038,0.24452 -5.00416,0.26642 -65.43387,0.34508 -61.301434,0.0798 -64.579224,0.0975 -65.593705,0.35515 -2.092666,0.53139 -3.277,1.25822 -5.196453,3.18911 l -1.194923,1.20204 z M 175.571,220.01109 v -14.81562 h 11.20205 c 6.16113,0 11.20205,0.0401 11.20205,0.0891 0,0.049 -1.58703,2.76026 -3.52675,6.02507 -1.9397,3.26481 -3.83258,6.50922 -4.20638,7.20981 l -0.67965,1.27379 1.18607,2.16034 c 0.65234,1.18819 2.54521,4.53783 4.20639,7.44365 1.66118,2.90581 3.02032,5.3162 3.02032,5.35641 0,0.0402 -5.04092,0.0731 -11.20205,0.0731 H 175.571 Z M 20.238525,243.30708 c 1.290254,-1.95061 2.438336,-4.32845 3.180567,-6.5874 2.285174,-6.95483 1.325822,-14.77593 -2.578271,-21.01932 l -0.918653,-1.46909 5.497108,-0.0395 c 3.02341,-0.0217 5.538563,8.1e-4 5.58923,0.0501 0.05067,0.0493 0.09212,6.66797 0.09212,14.70813 v 14.61846 l -5.543641,0.0395 -5.543642,0.0395 z m -57.28975,-0.15075 c 0,-0.0297 1.651553,-2.77451 3.670118,-6.09975 3.822824,-6.29747 4.911802,-8.20561 4.911802,-8.60662 0,-0.23845 -0.932973,-1.76155 -5.911352,-9.65045 -1.468813,-2.32754 -2.670568,-4.2592 -2.670568,-4.29259 0,-0.0334 3.974082,-0.0607 8.831294,-0.0607 h 8.831296 l -0.331099,0.47696 c -4.607413,6.63706 -5.726134,14.50117 -3.122449,21.94941 0.574299,1.64286 1.57645,3.70105 2.461867,5.05609 0.356931,0.54626 0.648966,1.05806 0.648966,1.13736 0,0.0927 -3.094179,0.14416 -8.659938,0.14416 -4.762966,0 -8.659937,-0.0242 -8.659937,-0.0539 z"/><path fill="#af41e1" d="M 38.263892,50.079431 C 30.516666,49.584263 23.586481,45.428796 19.446933,38.796432 16.425293,33.955177 15.259183,27.970314 16.22961,22.28406 17.869802,12.6733 25.211758,5.0043178 34.726369,2.9634185 c 1.612582,-0.3459016 2.543032,-0.4467896 4.481197,-0.4858926 1.473703,-0.029732 2.121028,-0.011737 2.998579,0.083361 4.658685,0.5048476 8.815177,2.2163249 12.503243,5.1483366 0.800861,0.6366836 2.384829,2.182148 3.172456,3.0953385 2.992589,3.469665 4.890858,7.775259 5.544213,12.57521 0.156583,1.150353 0.181679,4.390521 0.04226,5.456484 -0.316336,2.418665 -0.748996,4.167094 -1.511198,6.106927 -2.391173,6.085627 -7.152167,10.928102 -13.180534,13.40611 -2.428755,0.998358 -4.952968,1.564518 -7.727727,1.733265 -1.30319,0.07925 -1.499517,0.07903 -2.784968,-0.0031 z m 3.472795,-0.723158 c 4.549653,-0.397743 8.850143,-2.115621 12.466802,-4.980003 0.99008,-0.78414 2.98511,-2.795094 3.742486,-3.772357 2.432773,-3.139078 4.010239,-6.744644 4.636331,-10.597117 0.462593,-2.846438 0.371792,-6.002866 -0.253013,-8.795164 -0.703981,-3.146141 -2.294082,-6.52996 -4.266446,-9.079225 C 54.243079,7.1953898 48.651844,4.0398873 42.385866,3.2848543 41.030871,3.1215812 38.393523,3.119409 37.111322,3.2805101 32.86187,3.814429 29.157406,5.2940763 25.848858,7.7789951 20.603193,11.718806 17.351521,17.536337 16.68976,24.165439 c -0.125007,1.252249 -0.04978,4.224165 0.137443,5.429666 0.738944,4.757985 2.814813,9.099111 5.948609,12.439928 1.375663,1.46654 3.119185,2.914985 4.687289,3.894002 1.030526,0.643389 3.023948,1.628056 4.08333,2.016994 2.129837,0.781939 4.385784,1.283525 6.468283,1.438153 0.778245,0.05778 2.925956,0.04168 3.721973,-0.02791 z" transform="translate(-39.508 202.738)"/></g><path fill="#fff" d="m 42.333348,231.36578 v -15.16664 h 5.312491 q 2.760413,0 4.187494,1.0625 1.427081,1.05208 1.427081,3.09374 0,1.11459 -0.572916,1.96875 -0.572916,0.84375 -1.593747,1.23958 1.166664,0.29167 1.83333,1.17708 0.677082,0.88542 0.677082,2.16667 0,2.18749 -1.395831,3.31249 -1.395831,1.125 -3.97916,1.14583 z m 3.124995,-6.60415 v 4.09374 h 2.677079 q 1.104165,0 1.718747,-0.52083 0.624999,-0.53125 0.624999,-1.45833 0,-2.08333 -2.156246,-2.11458 z m 0,-2.20833 h 2.312496 q 2.36458,-0.0417 2.36458,-1.88542 0,-1.03124 -0.604166,-1.47916 -0.593749,-0.45833 -1.885414,-0.45833 h -2.187496 z m 13.468729,8.81248 h -3.020829 v -15.99997 h 3.020829 z m 9.010403,0 q -0.208333,-0.40625 -0.302083,-1.01041 -1.093749,1.21875 -2.843746,1.21875 -1.656247,0 -2.749996,-0.95834 -1.083331,-0.95833 -1.083331,-2.41666 0,-1.79166 1.322914,-2.74999 1.333332,-0.95834 3.843744,-0.96875 h 1.385415 v -0.64583 q 0,-0.78125 -0.40625,-1.25 -0.395832,-0.46875 -1.260414,-0.46875 -0.760416,0 -1.197915,0.36458 -0.427083,0.36458 -0.427083,1 h -3.010412 q 0,-0.97917 0.604166,-1.8125 0.604166,-0.83333 1.708331,-1.30208 1.104165,-0.47916 2.479163,-0.47916 2.08333,0 3.302078,1.05208 1.229164,1.04166 1.229164,2.93749 v 4.88541 q 0.01042,1.60417 0.447916,2.42708 v 0.17708 z m -2.48958,-2.09374 q 0.666666,0 1.229165,-0.29167 0.562499,-0.30208 0.833332,-0.80208 v -1.9375 h -1.124998 q -2.260413,0 -2.406247,1.5625 l -0.01042,0.17708 q 0,0.5625 0.395832,0.92708 0.395833,0.36459 1.083332,0.36459 z m 10.854149,-0.33334 h 5.510408 v 2.42708 H 72.4583 v -1.83333 l 5.302075,-6.99999 h -5.145826 v -2.43749 h 9.031236 v 1.78125 z m 10.572901,2.42708 h -3.020829 v -11.27081 h 3.020829 z m -3.197912,-14.18747 q 0,-0.67709 0.447916,-1.11459 0.458333,-0.43749 1.239582,-0.43749 0.770832,0 1.229164,0.43749 0.458333,0.4375 0.458333,1.11459 0,0.6875 -0.468749,1.12499 -0.458333,0.4375 -1.218748,0.4375 -0.760416,0 -1.229165,-0.4375 -0.458333,-0.43749 -0.458333,-1.12499 z m 12.427061,13.04164 q -1.114581,1.35417 -3.083328,1.35417 -1.812497,0 -2.770829,-1.04167 -0.947915,-1.04166 -0.968748,-3.05208 v -7.3854 H 92.2916 v 7.28124 q 0,1.76041 1.604165,1.76041 1.531247,0 2.104163,-1.0625 v -7.97915 h 3.020828 v 11.27081 h -2.833328 z m 8.010406,-10.12498 0.0937,1.26041 q 1.19792,-1.46874 3.23958,-1.46874 2.17708,0 2.98958,1.71874 1.1875,-1.71874 3.38541,-1.71874 1.83333,0 2.72916,1.07291 0.89583,1.0625 0.89583,3.20833 v 7.1979 h -3.02082 v -7.18748 q 0,-0.95834 -0.375,-1.39584 -0.375,-0.44791 -1.32292,-0.44791 -1.35416,0 -1.875,1.29166 l 0.0104,7.73957 h -3.01041 v -7.17707 q 0,-0.97916 -0.38542,-1.41666 -0.38541,-0.4375 -1.31249,-0.4375 -1.28125,0 -1.85417,1.0625 v 7.96873 h -3.01041 v -11.27081 z m 21.15622,11.27081 v -15.16664 h 4.66666 q 1.99999,0 3.57291,0.90625 1.58333,0.89583 2.46874,2.5625 0.88542,1.65624 0.88542,3.77082 v 0.69792 q 0,2.11458 -0.875,3.76041 -0.86458,1.64583 -2.44791,2.55208 -1.58333,0.90625 -3.57291,0.91666 z m 3.12499,-12.63539 v 10.12498 h 1.51042 q 1.83333,0 2.80208,-1.19791 0.96874,-1.19792 0.98958,-3.42708 v -0.80208 q 0,-2.3125 -0.95833,-3.5 -0.95834,-1.19791 -2.80208,-1.19791 z m 10.07291,6.89582 q 0,-1.67708 0.64583,-2.98958 0.64583,-1.3125 1.85416,-2.03125 1.21875,-0.71874 2.82291,-0.71874 2.28125,0 3.71875,1.39583 1.44791,1.39583 1.61458,3.79166 l 0.0208,0.77083 q 0,2.59374 -1.44791,4.16666 -1.44792,1.5625 -3.88541,1.5625 -2.4375,0 -3.89583,-1.5625 -1.44791,-1.5625 -1.44791,-4.24999 z m 3.01041,0.21875 q 0,1.60416 0.60416,2.45833 0.60417,0.84375 1.72917,0.84375 1.09375,0 1.70833,-0.83333 0.61458,-0.84375 0.61458,-2.6875 0,-1.57291 -0.61458,-2.4375 -0.61458,-0.86458 -1.72917,-0.86458 -1.10416,0 -1.70833,0.86458 -0.60416,0.85417 -0.60416,2.65625 z m 14.2083,3.30208 q 0.83334,0 1.35417,-0.45834 0.52083,-0.45833 0.54166,-1.21874 h 2.82292 q -0.0104,1.14583 -0.625,2.10416 -0.61458,0.94792 -1.6875,1.47916 -1.0625,0.52084 -2.35416,0.52084 -2.41667,0 -3.8125,-1.53125 -1.39583,-1.54167 -1.39583,-4.24999 v -0.19792 q 0,-2.60416 1.38542,-4.15624 1.38541,-1.55208 3.80207,-1.55208 2.11458,0 3.38542,1.20833 1.28124,1.19791 1.30208,3.19791 h -2.82292 q -0.0208,-0.875 -0.54166,-1.41667 -0.52083,-0.55208 -1.375,-0.55208 -1.05208,0 -1.59375,0.77083 -0.53125,0.76042 -0.53125,2.47917 v 0.3125 q 0,1.73958 0.53125,2.49999 0.53125,0.76042 1.61458,0.76042 z m 12.54165,-0.89583 q 0,-0.55209 -0.55208,-0.86459 -0.54166,-0.32291 -1.75,-0.57291 -4.02082,-0.84375 -4.02082,-3.41666 0,-1.5 1.23958,-2.5 1.25,-1.01041 3.26041,-1.01041 2.14583,0 3.42708,1.01041 1.29166,1.01042 1.29166,2.625 h -3.01041 q 0,-0.64584 -0.41667,-1.0625 -0.41666,-0.42708 -1.30208,-0.42708 -0.76041,0 -1.17708,0.34374 -0.41666,0.34375 -0.41666,0.875 0,0.5 0.46874,0.8125 0.47917,0.30208 1.60417,0.53125 1.125,0.21875 1.89583,0.5 2.38541,0.875 2.38541,3.03125 0,1.54166 -1.32291,2.49999 -1.32292,0.94792 -3.41666,0.94792 -1.41667,0 -2.52083,-0.5 -1.09375,-0.51042 -1.71875,-1.38542 -0.625,-0.88541 -0.625,-1.90624 h 2.85416 q 0.0417,0.80208 0.59375,1.22916 0.55208,0.42708 1.47917,0.42708 0.86458,0 1.30208,-0.32291 0.44791,-0.33334 0.44791,-0.86458 z" aria-label="Blazium Docs" font-family="Roboto" font-size="21.333" font-weight="700" style="-inkscape-font-specification:&quot;Roboto, Bold&quot;"/></g></svg>
